<svg id="shopping_basket_black_24dp_1_" data-name="shopping_basket_black_24dp (1)" xmlns="http://www.w3.org/2000/svg" width="21.884" height="21.884" viewBox="0 0 21.884 21.884">
  <path id="Path_28" data-name="Path 28" d="M0,0H21.884V21.884H0Z" fill="none"/>
  <path id="Path_29" data-name="Path 29" d="M15.781,8.385,11.787,2.4a.905.905,0,0,0-.757-.383.891.891,0,0,0-.757.392L6.279,8.385H1.912A.915.915,0,0,0,1,9.3a.768.768,0,0,0,.036.246L3.352,18A1.813,1.813,0,0,0,5.1,19.326H16.957A1.832,1.832,0,0,0,18.717,18l2.316-8.453L21.06,9.3a.915.915,0,0,0-.912-.912Zm-7.486,0L11.03,4.372l2.735,4.012Z" transform="translate(-0.088 -0.178)" fill="#043675"/>
</svg>
