<svg xmlns="http://www.w3.org/2000/svg" width="18.974" height="17.34" viewBox="0 0 18.974 17.34">
  <path id="Path_594" data-name="Path 594" d="M31.082,86.444a5.547,5.547,0,0,0-9.433-2.893,5.547,5.547,0,0,0-9.433,2.893,5.323,5.323,0,0,0,.272,2.506,6.917,6.917,0,0,0,.958,1.862,15.6,15.6,0,0,0,1.431,1.732l5.909,6.3a1.179,1.179,0,0,0,1.726,0l5.909-6.3a15.67,15.67,0,0,0,1.431-1.732,6.934,6.934,0,0,0,.958-1.862A5.33,5.33,0,0,0,31.082,86.444Z" transform="translate(-12.162 -81.877)" fill="#043675"/>
</svg>
