<svg id="account_circle_black_24dp_1_" data-name="account_circle_black_24dp (1)" xmlns="http://www.w3.org/2000/svg" width="21.884" height="21.884" viewBox="0 0 21.884 21.884">
  <path id="Path_26" data-name="Path 26" d="M0,0H21.884V21.884H0Z" fill="none"/>
  <path id="Path_27" data-name="Path 27" d="M11.118,2a9.118,9.118,0,1,0,9.118,9.118A9.122,9.122,0,0,0,11.118,2Zm0,2.735A2.735,2.735,0,1,1,8.383,7.471,2.732,2.732,0,0,1,11.118,4.735Zm0,12.948a6.566,6.566,0,0,1-5.471-2.936c.027-1.815,3.647-2.808,5.471-2.808s5.444.994,5.471,2.808A6.566,6.566,0,0,1,11.118,17.683Z" transform="translate(-0.176 -0.176)" fill="#043675"/>
</svg>
