<svg xmlns="http://www.w3.org/2000/svg" width="30" height="30" viewBox="0 0 30 30">
  <g id="Group_110" data-name="Group 110" transform="translate(-282 -1006)">
    <circle id="Ellipse_70" data-name="Ellipse 70" cx="15" cy="15" r="15" transform="translate(282 1006)" fill="#ebebeb"/>
    <path id="Path_539" data-name="Path 539" d="M29.305,86.015a5.026,5.026,0,0,0-8.547-2.621,5.026,5.026,0,0,0-8.547,2.621,4.823,4.823,0,0,0,.247,2.271,6.267,6.267,0,0,0,.868,1.687,14.14,14.14,0,0,0,1.3,1.57l5.354,5.706a1.068,1.068,0,0,0,1.564,0l5.354-5.706a14.2,14.2,0,0,0,1.3-1.57,6.282,6.282,0,0,0,.868-1.687A4.83,4.83,0,0,0,29.305,86.015Z" transform="translate(276.106 931.246)" fill="#043675"/>
  </g>
</svg>
